<svg width="136" height="95" viewBox="0 0 136 95" fill="none" xmlns="http://www.w3.org/2000/svg">
<path d="M44.5784 36.9031V47.0457C44.1799 47.5261 43.5647 48.0476 42.7327 48.6101C41.9006 49.1609 40.8284 49.6355 39.5159 50.0339C38.2034 50.4324 36.6155 50.6316 34.7522 50.6316C33.0999 50.6316 31.594 50.3621 30.2346 49.823C28.8752 49.2722 27.7034 48.4695 26.719 47.4148C25.7463 46.3601 24.9963 45.071 24.469 43.5476C23.9417 42.0125 23.678 40.2605 23.678 38.2917V36.6921C23.678 34.7234 23.9299 32.9714 24.4338 31.4363C24.9495 29.9011 25.6819 28.6062 26.6311 27.5515C27.5803 26.4968 28.7112 25.6941 30.0237 25.1433C31.3362 24.5925 32.7952 24.3171 34.4006 24.3171C36.6272 24.3171 38.4553 24.6804 39.885 25.407C41.3147 26.1218 42.4045 27.1179 43.1545 28.3953C43.9163 29.6609 44.385 31.114 44.5608 32.7546H39.4456C39.3167 31.8875 39.0706 31.1316 38.7073 30.4871C38.344 29.8425 37.8225 29.3386 37.1428 28.9753C36.4749 28.6121 35.6077 28.4304 34.5413 28.4304C33.6624 28.4304 32.8772 28.6121 32.1858 28.9753C31.5061 29.3269 30.9319 29.8484 30.4631 30.5398C29.9944 31.2312 29.637 32.0867 29.3909 33.1062C29.1448 34.1257 29.0217 35.3093 29.0217 36.657V38.2917C29.0217 39.6277 29.1506 40.8113 29.4084 41.8425C29.6663 42.8621 30.0471 43.7234 30.551 44.4265C31.0667 45.1179 31.6995 45.6394 32.4495 45.991C33.1995 46.3425 34.0725 46.5183 35.0686 46.5183C35.9006 46.5183 36.592 46.448 37.1428 46.3074C37.7053 46.1667 38.1565 45.9968 38.4963 45.7976C38.8479 45.5867 39.1174 45.3875 39.3049 45.2V40.6648H34.4885V36.9031H44.5784ZM66.0061 46.1667V50.28H52.3831V46.1667H66.0061ZM54.1057 24.6863V50.28H48.8323V24.6863H54.1057ZM64.2307 35.1101V39.1179H52.3831V35.1101H64.2307ZM65.9885 24.6863V28.8171H52.3831V24.6863H65.9885ZM89.9124 24.6863V50.28H84.6389L74.3557 33.1238V50.28H69.0823V24.6863H74.3557L84.6565 41.8601V24.6863H89.9124ZM111.674 46.1667V50.28H98.051V46.1667H111.674ZM99.7737 24.6863V50.28H94.5002V24.6863H99.7737ZM109.899 35.1101V39.1179H98.051V35.1101H109.899ZM111.656 24.6863V28.8171H98.051V24.6863H111.656Z" fill="black"/>
<path d="M26.9521 64.296H32.2081C33.0721 64.296 33.8801 64.4 34.6321 64.608C35.3841 64.8 36.0321 65.104 36.5761 65.52C37.1201 65.936 37.5441 66.464 37.8481 67.104C38.1681 67.728 38.3281 68.472 38.3281 69.336C38.3281 70.2 38.1761 70.96 37.8721 71.616C37.5681 72.272 37.1281 72.824 36.5521 73.272C35.9921 73.704 35.3121 74.032 34.5121 74.256C33.7121 74.48 32.8161 74.592 31.8241 74.592H30.3601V80.28H26.9521V64.296ZM31.8721 72.024C32.9441 72.024 33.7201 71.808 34.2001 71.376C34.6801 70.944 34.9201 70.28 34.9201 69.384C34.9201 68.568 34.6881 67.952 34.2241 67.536C33.7601 67.104 33.0001 66.888 31.9441 66.888H30.3601V72.024H31.8721ZM40.8917 63H44.0837V80.28H40.8917V63ZM50.1171 80.568C49.6211 80.568 49.1571 80.496 48.7251 80.352C48.2931 80.208 47.9171 80 47.5971 79.728C47.2931 79.44 47.0451 79.096 46.8531 78.696C46.6771 78.28 46.5891 77.808 46.5891 77.28C46.5891 76.512 46.7651 75.864 47.1171 75.336C47.4851 74.808 47.9571 74.384 48.5331 74.064C49.1251 73.728 49.7971 73.488 50.5491 73.344C51.3011 73.2 52.0611 73.128 52.8291 73.128H53.2371V72.456C53.2371 71.896 53.0931 71.488 52.8051 71.232C52.5331 70.96 52.0451 70.824 51.3411 70.824C50.7011 70.824 50.1331 70.944 49.6371 71.184C49.1411 71.408 48.7171 71.656 48.3651 71.928L46.9731 69.984C47.4371 69.552 48.0611 69.168 48.8451 68.832C49.6451 68.48 50.5971 68.304 51.7011 68.304C53.3011 68.304 54.4851 68.64 55.2531 69.312C56.0211 69.968 56.4051 71.072 56.4051 72.624V76.824C56.4051 77.624 56.4371 78.312 56.5011 78.888C56.5811 79.448 56.6611 79.912 56.7411 80.28H53.5971C53.5491 80.136 53.5091 79.936 53.4771 79.68C53.4451 79.424 53.4211 79.208 53.4051 79.032C53.0851 79.416 52.6451 79.768 52.0851 80.088C51.5411 80.408 50.8851 80.568 50.1171 80.568ZM51.0771 78.24C51.5731 78.24 51.9891 78.144 52.3251 77.952C52.6771 77.744 52.9811 77.496 53.2371 77.208V75.096H52.8291C51.8851 75.096 51.1171 75.248 50.5251 75.552C49.9491 75.84 49.6611 76.328 49.6611 77.016C49.6611 77.448 49.8051 77.76 50.0931 77.952C50.3811 78.144 50.7091 78.24 51.0771 78.24ZM63.8211 80.568C62.4451 80.568 61.4851 80.24 60.9411 79.584C60.3971 78.928 60.1251 78.04 60.1251 76.92V70.968H58.2531V68.592H60.1251V65.208H63.2931V68.592H66.0291V70.968H63.2931V76.296C63.2931 76.872 63.3731 77.296 63.5331 77.568C63.7091 77.824 64.0211 77.952 64.4691 77.952C64.8211 77.952 65.1331 77.904 65.4051 77.808C65.6771 77.696 65.8771 77.6 66.0051 77.52L66.7491 79.896C66.5091 80.024 66.1411 80.168 65.6451 80.328C65.1651 80.488 64.5571 80.568 63.8211 80.568ZM69.1212 70.968H67.3692V68.592H69.1212V67.392C69.1212 65.984 69.5132 64.856 70.2972 64.008C71.0812 63.144 72.2252 62.712 73.7292 62.712C74.5932 62.712 75.2412 62.784 75.6732 62.928C76.1212 63.072 76.4172 63.184 76.5612 63.264L75.8172 65.664C75.7212 65.616 75.5372 65.552 75.2652 65.472C74.9932 65.376 74.6412 65.328 74.2092 65.328C72.9452 65.328 72.3132 66.096 72.3132 67.632V68.592H75.0972V70.968H72.3132V80.28H69.1212V70.968ZM81.8341 80.568C80.8101 80.568 79.9301 80.392 79.1941 80.04C78.4581 79.688 77.8501 79.224 77.3701 78.648C76.8901 78.072 76.5381 77.424 76.3141 76.704C76.0901 75.968 75.9781 75.224 75.9781 74.472C75.9781 73.72 76.0901 72.976 76.3141 72.24C76.5381 71.504 76.8821 70.848 77.3461 70.272C77.8261 69.68 78.4341 69.208 79.1701 68.856C79.9061 68.488 80.7861 68.304 81.8101 68.304C82.8341 68.304 83.7141 68.48 84.4501 68.832C85.2021 69.184 85.8181 69.648 86.2981 70.224C86.7941 70.784 87.1541 71.432 87.3781 72.168C87.6181 72.888 87.7381 73.624 87.7381 74.376C87.7381 75.112 87.6181 75.848 87.3781 76.584C87.1541 77.32 86.8021 77.984 86.3221 78.576C85.8421 79.168 85.2261 79.648 84.4741 80.016C83.7381 80.384 82.8581 80.568 81.8341 80.568ZM81.8821 78.144C82.7941 78.144 83.4341 77.808 83.8021 77.136C84.1701 76.464 84.3541 75.576 84.3541 74.472C84.3541 73.928 84.3061 73.424 84.2101 72.96C84.1141 72.496 83.9541 72.096 83.7301 71.76C83.5221 71.424 83.2501 71.16 82.9141 70.968C82.5941 70.776 82.2101 70.68 81.7621 70.68C81.3141 70.68 80.9381 70.776 80.6341 70.968C80.3301 71.144 80.0821 71.392 79.8901 71.712C79.6981 72.032 79.5621 72.424 79.4821 72.888C79.4021 73.336 79.3621 73.832 79.3621 74.376C79.3621 74.92 79.4101 75.424 79.5061 75.888C79.6021 76.352 79.7461 76.752 79.9381 77.088C80.1461 77.424 80.4101 77.688 80.7301 77.88C81.0501 78.056 81.4341 78.144 81.8821 78.144ZM90.0134 68.592H93.2054V70.176C93.3334 69.968 93.4854 69.752 93.6614 69.528C93.8534 69.304 94.0694 69.104 94.3094 68.928C94.5494 68.736 94.8214 68.584 95.1254 68.472C95.4454 68.36 95.7894 68.304 96.1574 68.304C96.5894 68.304 96.9254 68.336 97.1654 68.4C97.4214 68.464 97.6134 68.536 97.7414 68.616L96.9734 71.4C96.8774 71.336 96.7334 71.28 96.5414 71.232C96.3494 71.168 96.0854 71.136 95.7494 71.136C95.3974 71.136 95.0774 71.208 94.7894 71.352C94.5174 71.48 94.2694 71.64 94.0454 71.832C93.8374 72.024 93.6614 72.224 93.5174 72.432C93.3734 72.624 93.2694 72.784 93.2054 72.912V80.28H90.0134V68.592ZM99.3649 68.592H102.485V70.032C102.629 69.872 102.805 69.688 103.013 69.48C103.221 69.272 103.469 69.088 103.757 68.928C104.045 68.752 104.373 68.608 104.741 68.496C105.109 68.368 105.525 68.304 105.989 68.304C106.821 68.304 107.469 68.472 107.933 68.808C108.413 69.144 108.765 69.592 108.989 70.152C109.485 69.592 110.021 69.144 110.597 68.808C111.173 68.472 111.885 68.304 112.733 68.304C113.357 68.304 113.877 68.4 114.293 68.592C114.725 68.784 115.069 69.048 115.325 69.384C115.597 69.72 115.789 70.12 115.901 70.584C116.013 71.048 116.069 71.552 116.069 72.096V80.28H112.877V72.744C112.877 72.168 112.773 71.728 112.565 71.424C112.373 71.12 112.013 70.968 111.485 70.968C111.245 70.968 111.013 71.016 110.789 71.112C110.581 71.192 110.381 71.296 110.189 71.424C110.013 71.552 109.845 71.696 109.685 71.856C109.541 72 109.413 72.144 109.301 72.288V80.28H106.109V72.744C106.109 72.152 105.997 71.712 105.773 71.424C105.565 71.12 105.221 70.968 104.741 70.968C104.453 70.968 104.181 71.032 103.925 71.16C103.685 71.272 103.469 71.408 103.277 71.568C103.101 71.728 102.949 71.888 102.821 72.048C102.709 72.208 102.621 72.328 102.557 72.408V80.28H99.3649V68.592Z" fill="black"/>
<line x1="8.00806" y1="56.28" x2="128.008" y2="56.28" stroke="black" stroke-width="4"/>
<rect x="2.50806" y="19.78" width="131" height="72" stroke="black" stroke-width="5"/>
<line x1="39.0081" y1="18.78" x2="46.0081" y2="18.78" stroke="white" stroke-width="5"/>
<path d="M84.2185 17.568C83.0345 17.568 82.0345 17.464 81.2185 17.256C80.4185 17.048 79.8185 16.84 79.4185 16.632V0H82.6105V6.504C82.9145 6.2 83.3145 5.928 83.8105 5.688C84.3065 5.432 84.8585 5.304 85.4665 5.304C86.2025 5.304 86.8745 5.432 87.4825 5.688C88.0905 5.944 88.6105 6.328 89.0425 6.84C89.4905 7.336 89.8345 7.96 90.0745 8.712C90.3145 9.464 90.4345 10.344 90.4345 11.352C90.4345 12.344 90.2745 13.232 89.9545 14.016C89.6345 14.784 89.1945 15.432 88.6345 15.96C88.0905 16.488 87.4345 16.888 86.6665 17.16C85.9145 17.432 85.0985 17.568 84.2185 17.568ZM84.2185 15.072C85.1145 15.072 85.8105 14.752 86.3065 14.112C86.8025 13.472 87.0505 12.552 87.0505 11.352C87.0505 10.248 86.8505 9.384 86.4505 8.76C86.0665 8.136 85.4425 7.824 84.5785 7.824C84.1465 7.824 83.7545 7.928 83.4025 8.136C83.0505 8.328 82.7865 8.52 82.6105 8.712V14.808C82.7865 14.888 83.0025 14.952 83.2585 15C83.5145 15.048 83.8345 15.072 84.2185 15.072Z" fill="#D73F09"/>
<path d="M70.1796 17.568C69.6836 17.568 69.2196 17.496 68.7876 17.352C68.3556 17.208 67.9796 17 67.6596 16.728C67.3556 16.44 67.1076 16.096 66.9156 15.696C66.7396 15.28 66.6516 14.808 66.6516 14.28C66.6516 13.512 66.8276 12.864 67.1796 12.336C67.5476 11.808 68.0196 11.384 68.5956 11.064C69.1876 10.728 69.8596 10.488 70.6116 10.344C71.3636 10.2 72.1236 10.128 72.8916 10.128H73.2996V9.45595C73.2996 8.89595 73.1556 8.48795 72.8676 8.23195C72.5956 7.95995 72.1076 7.82395 71.4036 7.82395C70.7636 7.82395 70.1956 7.94395 69.6996 8.18395C69.2036 8.40795 68.7796 8.65595 68.4276 8.92795L67.0356 6.98395C67.4996 6.55195 68.1236 6.16795 68.9076 5.83195C69.7076 5.47995 70.6596 5.30396 71.7636 5.30396C73.3636 5.30396 74.5476 5.63995 75.3156 6.31195C76.0836 6.96795 76.4676 8.07195 76.4676 9.62395V13.824C76.4676 14.624 76.4996 15.312 76.5636 15.888C76.6436 16.448 76.7236 16.912 76.8036 17.28H73.6596C73.6116 17.136 73.5716 16.936 73.5396 16.68C73.5076 16.424 73.4836 16.208 73.4676 16.032C73.1476 16.416 72.7076 16.768 72.1476 17.088C71.6036 17.408 70.9476 17.568 70.1796 17.568ZM71.1396 15.24C71.6356 15.24 72.0516 15.144 72.3876 14.952C72.7396 14.744 73.0436 14.496 73.2996 14.208V12.096H72.8916C71.9476 12.096 71.1796 12.248 70.5876 12.552C70.0116 12.84 69.7236 13.328 69.7236 14.016C69.7236 14.448 69.8676 14.76 70.1556 14.952C70.4436 15.144 70.7716 15.24 71.1396 15.24Z" fill="#D73F09"/>
<path d="M55.5715 1.2959H58.9795V14.5439H64.9315V17.2799H55.5715V1.2959Z" fill="#D73F09"/>
<path d="M41.5688 23.016C39.9208 23.016 38.6568 22.744 37.7768 22.2C36.8968 21.656 36.4568 20.872 36.4568 19.848C36.4568 19.496 36.5208 19.176 36.6488 18.888C36.7768 18.6 36.9448 18.336 37.1528 18.096C37.3608 17.872 37.6008 17.672 37.8728 17.496C38.1448 17.32 38.4248 17.168 38.7128 17.04V16.992C38.3928 16.8 38.1208 16.56 37.8968 16.272C37.6728 15.984 37.5608 15.608 37.5608 15.144C37.5608 14.632 37.7128 14.2 38.0168 13.848C38.3368 13.48 38.6808 13.192 39.0488 12.984V12.936C38.4248 12.6 37.9048 12.152 37.4888 11.592C37.0888 11.016 36.8888 10.296 36.8888 9.43195C36.8888 8.21595 37.3288 7.22395 38.2088 6.45595C39.1048 5.68795 40.3608 5.30396 41.9768 5.30396C42.7448 5.30396 43.4328 5.39995 44.0408 5.59195H48.2888V7.67995H46.6088C46.9448 8.23995 47.1128 8.82395 47.1128 9.43195C47.1128 10.68 46.6808 11.688 45.8168 12.456C44.9528 13.208 43.7208 13.584 42.1208 13.584C41.8968 13.584 41.6728 13.576 41.4488 13.56C41.2408 13.528 41.0248 13.496 40.8008 13.464C40.6568 13.544 40.5368 13.656 40.4408 13.8C40.3448 13.944 40.2968 14.088 40.2968 14.232C40.2968 14.568 40.4888 14.8 40.8728 14.928C41.2728 15.04 41.9048 15.112 42.7688 15.144C43.3768 15.176 44.0008 15.224 44.6408 15.288C45.2968 15.336 45.8968 15.472 46.4408 15.696C46.9848 15.904 47.4248 16.232 47.7608 16.68C48.1128 17.128 48.2888 17.752 48.2888 18.552C48.2888 19.208 48.1288 19.808 47.8088 20.352C47.4888 20.896 47.0328 21.368 46.4408 21.768C45.8488 22.168 45.1368 22.472 44.3048 22.68C43.4888 22.904 42.5768 23.016 41.5688 23.016ZM41.9288 20.88C42.9208 20.88 43.7048 20.704 44.2808 20.352C44.8568 20.016 45.1448 19.592 45.1448 19.08C45.1448 18.776 45.0728 18.544 44.9288 18.384C44.7848 18.224 44.5768 18.104 44.3048 18.024C44.0488 17.944 43.7448 17.888 43.3928 17.856C43.0408 17.84 42.6488 17.816 42.2168 17.784C41.9128 17.752 41.6248 17.72 41.3528 17.688C41.0808 17.672 40.8168 17.648 40.5608 17.616C40.2568 17.808 40.0088 18.056 39.8168 18.36C39.6408 18.68 39.5528 19 39.5528 19.32C39.5528 19.784 39.7448 20.16 40.1288 20.448C40.5128 20.736 41.1128 20.88 41.9288 20.88ZM42.0008 11.496C42.6248 11.496 43.1128 11.32 43.4648 10.968C43.8328 10.6 44.0168 10.088 44.0168 9.43195C44.0168 8.77595 43.8328 8.27195 43.4648 7.91995C43.0968 7.56795 42.6008 7.39195 41.9768 7.39195C41.3688 7.39195 40.8808 7.56795 40.5128 7.91995C40.1608 8.27195 39.9848 8.77595 39.9848 9.43195C39.9848 10.088 40.1688 10.6 40.5368 10.968C40.9048 11.32 41.3928 11.496 42.0008 11.496Z" fill="#D73F09"/>
<line x1="26.0081" y1="18.78" x2="33.0081" y2="18.78" stroke="white" stroke-width="5"/>
<path d="M28.6782 23.016C27.0302 23.016 25.7662 22.744 24.8862 22.2C24.0062 21.656 23.5662 20.872 23.5662 19.848C23.5662 19.496 23.6302 19.176 23.7582 18.888C23.8862 18.6 24.0542 18.336 24.2622 18.096C24.4702 17.872 24.7102 17.672 24.9822 17.496C25.2542 17.32 25.5342 17.168 25.8222 17.04V16.992C25.5022 16.8 25.2302 16.56 25.0062 16.272C24.7822 15.984 24.6702 15.608 24.6702 15.144C24.6702 14.632 24.8222 14.2 25.1262 13.848C25.4462 13.48 25.7902 13.192 26.1582 12.984V12.936C25.5342 12.6 25.0142 12.152 24.5982 11.592C24.1982 11.016 23.9982 10.296 23.9982 9.43195C23.9982 8.21595 24.4382 7.22395 25.3182 6.45595C26.2142 5.68795 27.4702 5.30396 29.0862 5.30396C29.8542 5.30396 30.5422 5.39995 31.1502 5.59195H35.3982V7.67995H33.7182C34.0542 8.23995 34.2222 8.82395 34.2222 9.43195C34.2222 10.68 33.7902 11.688 32.9262 12.456C32.0622 13.208 30.8302 13.584 29.2302 13.584C29.0062 13.584 28.7822 13.576 28.5582 13.56C28.3502 13.528 28.1342 13.496 27.9102 13.464C27.7662 13.544 27.6462 13.656 27.5502 13.8C27.4542 13.944 27.4062 14.088 27.4062 14.232C27.4062 14.568 27.5982 14.8 27.9822 14.928C28.3822 15.04 29.0142 15.112 29.8782 15.144C30.4862 15.176 31.1102 15.224 31.7502 15.288C32.4062 15.336 33.0062 15.472 33.5502 15.696C34.0942 15.904 34.5342 16.232 34.8702 16.68C35.2222 17.128 35.3982 17.752 35.3982 18.552C35.3982 19.208 35.2382 19.808 34.9182 20.352C34.5982 20.896 34.1422 21.368 33.5502 21.768C32.9582 22.168 32.2462 22.472 31.4142 22.68C30.5982 22.904 29.6862 23.016 28.6782 23.016ZM29.0382 20.88C30.0302 20.88 30.8142 20.704 31.3902 20.352C31.9662 20.016 32.2542 19.592 32.2542 19.08C32.2542 18.776 32.1822 18.544 32.0382 18.384C31.8942 18.224 31.6862 18.104 31.4142 18.024C31.1582 17.944 30.8542 17.888 30.5022 17.856C30.1502 17.84 29.7582 17.816 29.3262 17.784C29.0222 17.752 28.7342 17.72 28.4622 17.688C28.1902 17.672 27.9262 17.648 27.6702 17.616C27.3662 17.808 27.1182 18.056 26.9262 18.36C26.7502 18.68 26.6622 19 26.6622 19.32C26.6622 19.784 26.8542 20.16 27.2382 20.448C27.6222 20.736 28.2222 20.88 29.0382 20.88ZM29.1102 11.496C29.7342 11.496 30.2222 11.32 30.5742 10.968C30.9422 10.6 31.1262 10.088 31.1262 9.43195C31.1262 8.77595 30.9422 8.27195 30.5742 7.91995C30.2062 7.56795 29.7102 7.39195 29.0862 7.39195C28.4782 7.39195 27.9902 7.56795 27.6222 7.91995C27.2702 8.27195 27.0942 8.77595 27.0942 9.43195C27.0942 10.088 27.2782 10.6 27.6462 10.968C28.0142 11.32 28.5022 11.496 29.1102 11.496Z" fill="#D73F09"/>
<path d="M16.4668 17.568C15.4428 17.568 14.5628 17.392 13.8268 17.04C13.0908 16.688 12.4828 16.224 12.0028 15.648C11.5228 15.072 11.1708 14.424 10.9468 13.704C10.7228 12.968 10.6108 12.224 10.6108 11.472C10.6108 10.72 10.7228 9.97596 10.9468 9.23995C11.1708 8.50395 11.5148 7.84795 11.9788 7.27195C12.4588 6.67995 13.0668 6.20795 13.8028 5.85596C14.5388 5.48796 15.4188 5.30396 16.4428 5.30396C17.4668 5.30396 18.3468 5.47995 19.0828 5.83195C19.8348 6.18395 20.4508 6.64795 20.9308 7.22395C21.4268 7.78395 21.7868 8.43195 22.0108 9.16795C22.2508 9.88795 22.3708 10.624 22.3708 11.376C22.3708 12.112 22.2508 12.848 22.0108 13.584C21.7868 14.32 21.4348 14.984 20.9548 15.576C20.4748 16.168 19.8588 16.648 19.1068 17.016C18.3708 17.384 17.4908 17.568 16.4668 17.568ZM16.5148 15.144C17.4268 15.144 18.0668 14.808 18.4348 14.136C18.8028 13.464 18.9868 12.576 18.9868 11.472C18.9868 10.928 18.9388 10.424 18.8428 9.95996C18.7468 9.49595 18.5868 9.09595 18.3628 8.75995C18.1548 8.42395 17.8828 8.15995 17.5468 7.96795C17.2268 7.77595 16.8428 7.67995 16.3948 7.67995C15.9468 7.67995 15.5708 7.77595 15.2668 7.96795C14.9628 8.14395 14.7148 8.39195 14.5228 8.71195C14.3308 9.03195 14.1948 9.42395 14.1148 9.88795C14.0348 10.336 13.9948 10.832 13.9948 11.376C13.9948 11.92 14.0428 12.424 14.1388 12.888C14.2348 13.352 14.3788 13.752 14.5708 14.088C14.7788 14.424 15.0428 14.688 15.3628 14.88C15.6828 15.056 16.0668 15.144 16.5148 15.144Z" fill="#D73F09"/>
<path d="M0 1.2959H9.168V4.0799H3.384V7.9919H8.472V10.6319H3.384V17.2799H0V1.2959Z" fill="#D73F09"/>
</svg>
